<svg xmlns="http://www.w3.org/2000/svg" width="157" height="80" viewBox="0 0 157 80">    <g fill="none" fill-rule="evenodd">        <path fill="#FFF" d="M82.406 29.938A4.791 4.791 0 0 1 82 27.997c0-.675.135-1.322.406-1.94a4.99 4.99 0 0 1 1.09-1.595 5.227 5.227 0 0 1 1.619-1.064 4.93 4.93 0 0 1 1.95-.398c.968 0 1.855.25 2.661.75a5.057 5.057 0 0 1 1.855 1.987l-2.228 1.012a2.546 2.546 0 0 0-.938-.994 2.531 2.531 0 0 0-1.35-.374c-.717 0-1.328.254-1.833.762a2.53 2.53 0 0 0-.76 1.854c0 .727.254 1.345.76 1.854a2.492 2.492 0 0 0 1.833.762 2.542 2.542 0 0 0 2.288-1.368l2.24.988a4.993 4.993 0 0 1-1.852 2.008 4.96 4.96 0 0 1-2.676.759 4.93 4.93 0 0 1-1.95-.398 5.2 5.2 0 0 1-1.619-1.067 5.025 5.025 0 0 1-1.09-1.597zm10.98 2.875l3.865-9.626h2.425l3.852 9.626h-2.67l-.525-1.404h-3.751l-.532 1.404h-2.664zm4.026-3.64h2.09l-1.039-2.828-1.051 2.827zm9.377 3.64v-9.626h2.078l4.26 5.377v-5.377h2.43v9.626h-2.066l-4.26-5.37v5.37h-2.442zm12.035 0l3.864-9.626h2.426l3.852 9.626h-2.67l-.525-1.404h-3.752l-.531 1.404h-2.664zm4.026-3.64h2.09l-1.039-2.828-1.051 2.827zm9.377 3.64v-9.626h4.426c.725 0 1.378.127 1.96.383a3.812 3.812 0 0 1 1.424 1.045c.368.442.649.95.842 1.525.193.575.29 1.194.29 1.857 0 .53-.06 1.034-.18 1.51-.119.476-.303.916-.552 1.32-.249.404-.55.753-.902 1.049a3.853 3.853 0 0 1-1.266.69 5.06 5.06 0 0 1-1.616.247h-4.426zm2.443-2.38h1.804c.712 0 1.261-.22 1.645-.66.385-.44.577-1.033.577-1.776 0-.74-.192-1.327-.577-1.763-.384-.436-.933-.654-1.645-.654h-1.804v4.852zm8.187 2.38l3.865-9.626h2.425L153 32.813h-2.67l-.526-1.404h-3.75l-.532 1.404h-2.665zm4.026-3.64h2.091l-1.04-2.828-1.05 2.827zM82 43.034v-.108h2.416v.06c0 .213.143.412.43.597.285.185.686.277 1.201.277.427 0 .738-.057.934-.172.195-.114.293-.254.293-.419 0-.196-.121-.368-.363-.515-.241-.147-.67-.324-1.287-.533-.27-.089-.498-.167-.685-.235a11.335 11.335 0 0 1-.683-.28 5.775 5.775 0 0 1-.676-.347 4.902 4.902 0 0 1-.58-.425 2.662 2.662 0 0 1-.493-.53 2.547 2.547 0 0 1-.428-1.42c0-.908.349-1.633 1.048-2.173.698-.54 1.605-.811 2.721-.811.75 0 1.422.125 2.018.374.596.249 1.067.612 1.413 1.088a2.73 2.73 0 0 1 .52 1.648v.133h-2.417v-.084c0-.266-.13-.503-.39-.712-.259-.209-.622-.313-1.09-.313-.39 0-.684.064-.882.193-.197.128-.296.283-.296.464 0 .18.111.334.333.461.221.127.642.296 1.262.51.846.297 1.482.57 1.91.82 1.135.658 1.703 1.51 1.703 2.555 0 .61-.169 1.134-.505 1.57-.336.436-.79.76-1.359.974-.57.213-1.227.319-1.972.319-.778 0-1.473-.115-2.087-.344-.615-.229-1.103-.57-1.465-1.021-.363-.452-.544-.986-.544-1.6zm11.55 2.78v-9.627h4.252c.62 0 1.176.1 1.668.301.49.201.889.473 1.193.817.304.344.534.734.691 1.172.157.438.236.905.236 1.399 0 .518-.079 1.001-.236 1.45a3.572 3.572 0 0 1-.691 1.19c-.304.346-.702.618-1.193.817-.492.199-1.047.298-1.668.298H96.02v2.182h-2.47zm2.47-4.431h1.65c.49 0 .85-.135 1.078-.404.227-.27.341-.633.341-1.091 0-.422-.115-.77-.344-1.046-.23-.275-.588-.413-1.076-.413H96.02v2.954zm8.989 1.555a4.745 4.745 0 0 1-.411-1.941c0-.675.137-1.322.41-1.94a4.988 4.988 0 0 1 1.103-1.595 5.292 5.292 0 0 1 1.637-1.064A5.035 5.035 0 0 1 109.72 36c.693 0 1.356.133 1.988.398a5.18 5.18 0 0 1 1.634 1.067c.457.446.821.977 1.093 1.594.272.617.408 1.263.408 1.938s-.136 1.322-.408 1.94a5.032 5.032 0 0 1-1.093 1.598 5.18 5.18 0 0 1-1.634 1.067 5.087 5.087 0 0 1-1.988.398 5.035 5.035 0 0 1-1.972-.398 5.264 5.264 0 0 1-1.637-1.067 5.024 5.024 0 0 1-1.102-1.597zm2.857-3.792a2.506 2.506 0 0 0-.767 1.851c0 .727.255 1.345.767 1.854.511.508 1.13.762 1.854.762.741 0 1.364-.253 1.867-.76.503-.506.755-1.125.755-1.856 0-.731-.252-1.35-.755-1.857-.503-.506-1.126-.759-1.867-.759a2.53 2.53 0 0 0-1.854.765zm10.517 6.667v-9.626h4.711c.6 0 1.135.092 1.604.277.47.185.848.44 1.136.766.288.325.505.697.652 1.115.147.418.22.87.22 1.356 0 .703-.16 1.341-.482 1.914a3.021 3.021 0 0 1-1.42 1.287l2.09 2.911h-2.96l-1.83-2.58h-1.263v2.58h-2.458zm2.458-4.816h2.12c.464 0 .806-.12 1.027-.359.222-.239.333-.543.333-.913 0-.398-.109-.713-.327-.946-.217-.233-.561-.35-1.032-.35h-2.12v2.568zm8.72-2.417v-2.393h8.487v2.393h-3.008v7.233h-2.477V38.58h-3.002zm11.507 4.454v-.108h2.417v.06c0 .213.143.412.429.597.286.185.686.277 1.202.277.427 0 .738-.057.933-.172.195-.114.293-.254.293-.419 0-.196-.12-.368-.362-.515-.242-.147-.67-.324-1.287-.533-.27-.089-.498-.167-.686-.235a11.335 11.335 0 0 1-.682-.28 5.775 5.775 0 0 1-.677-.347 4.902 4.902 0 0 1-.58-.425 2.662 2.662 0 0 1-.492-.53 2.547 2.547 0 0 1-.43-1.42c0-.908.35-1.633 1.049-2.173s1.606-.811 2.721-.811c.75 0 1.422.125 2.018.374.596.249 1.067.612 1.414 1.088a2.73 2.73 0 0 1 .52 1.648v.133h-2.417v-.084c0-.266-.13-.503-.39-.712-.26-.209-.623-.313-1.09-.313-.39 0-.685.064-.882.193-.198.128-.296.283-.296.464 0 .18.11.334.332.461.222.127.642.296 1.263.51.845.297 1.482.57 1.908.82 1.136.658 1.704 1.51 1.704 2.555 0 .61-.168 1.134-.504 1.57-.337.436-.79.76-1.36.974-.57.213-1.227.319-1.972.319-.777 0-1.473-.115-2.087-.344-.614-.229-1.102-.57-1.465-1.021-.362-.452-.544-.986-.544-1.6zM83 57.813v-9.626h4.766c1 0 1.767.243 2.303.73.535.485.803 1.126.803 1.922 0 .916-.39 1.591-1.169 2.025.504.19.895.472 1.175.847.28.376.42.837.42 1.384 0 .807-.28 1.462-.84 1.965-.56.502-1.319.753-2.278.753H83zm2.452-2.236h2.458c.608 0 .912-.287.912-.862 0-.55-.304-.826-.912-.826h-2.458v1.688zm0-3.617h2.027c.607 0 .911-.255.911-.765 0-.237-.066-.424-.198-.56-.132-.138-.324-.206-.575-.206h-2.165v1.531zm9.4 5.853v-9.626h7.357v2.393h-4.904v1.38h4.029v2.237h-4.03v1.235h4.905v2.381h-7.356zm10.457-7.233v-2.393h8.423v2.393h-2.986v7.233h-2.458V50.58h-2.98zm11.708 0v-2.393h8.424v2.393h-2.986v7.233h-2.458V50.58h-2.98zm11.805 7.233v-9.626h2.452v9.626h-2.452zm6.427 0v-9.626h2.086l4.275 5.377v-5.377h2.44v9.626h-2.074l-4.275-5.37v5.37h-2.452zm12.728-2.875a4.776 4.776 0 0 1-.408-1.941c0-.675.136-1.321.408-1.938a5.059 5.059 0 0 1 1.09-1.594 5.184 5.184 0 0 1 1.623-1.067 4.98 4.98 0 0 1 1.963-.398c.808 0 1.567.18 2.279.542a5.11 5.11 0 0 1 1.774 1.471l-2.002 1.356a2.57 2.57 0 0 0-.903-.726 2.58 2.58 0 0 0-1.148-.262c-.723 0-1.338.254-1.843.762a2.53 2.53 0 0 0-.759 1.854c0 .727.253 1.345.759 1.854.505.508 1.12.762 1.843.762.42 0 .809-.097 1.166-.292.358-.195.653-.463.885-.805v-.271h-2.32v-2.05H157v5.618h-1.93v-.904c-.228.35-.561.619-.999.808a3.54 3.54 0 0 1-1.418.283 4.98 4.98 0 0 1-1.963-.398 5.184 5.184 0 0 1-1.622-1.067 5.05 5.05 0 0 1-1.091-1.597z"/>        <path fill="#BF0816" d="M0 80h68V0H0z"/>        <g fill="#FFF">            <path d="M39.696 45.67c-2.394.512-4.775 1.093-7.158 1.653l.003.01c-1.632.384-3.268.759-4.913 1.085-.406.08-.83.146-1.244.179-4.083.326-6.097-.665-7.386-1.904-4.423-4.25-3.44-11.573 2.372-13.757 3.932-1.478 2.82-.965 6.918-2.023 2.32-.56 4.633-1.139 6.948-1.718 2.325-.58 3.558-2.676 3.087-4.934-.407-1.947-2.879-3.56-5.054-3.097-2.395.511-4.773 1.093-7.157 1.653l.104.387c-.225-.834-.006-.017-.104-.387 0 0-1.28.219-6.11 1.548-6.488 1.784-11.562 7.892-12.288 14.49-.607 5.516 2.754 12.425 7.425 15.499 1.025.698 5.164 3.853 12.207 2.743 2.486-.513 4.96-1.085 7.428-1.68l-.003-.012c2.3-.555 4.596-1.13 6.89-1.703 2.325-.581 3.56-2.676 3.089-4.935-.407-1.948-2.88-3.56-5.054-3.096"/>            <path d="M51.982 34.64c-.449-.24-1.62-.687-3.296-1.06.985-1.93 1.625-4.086 1.876-6.365.607-5.514-2.756-12.426-7.425-15.499-1.026-.698-5.56-3.629-10.95-2.718-2.486.514-4.972.952-7.44 1.547l.004.012c-2.301.555-4.598 1.13-6.893 1.704-2.324.58-3.558 2.676-3.086 4.934.407 1.947 2.879 3.56 5.054 3.096 2.394-.51 4.773-1.092 7.156-1.652l-.003-.01c1.634-.384 3.268-.759 4.913-1.085.407-.082.83-.145 1.244-.179 4.083-.326 6.099.665 7.388 1.904 4.42 4.25 3.44 11.573-2.372 13.758-1.36.51-2.112.78-2.69.963-1.305.294-2.597.6-3.984.933l-.31.08c-2.302.555-4.598 1.13-6.893 1.704-2.325.58-3.558 2.676-3.087 4.935 0 .004.003.009.005.013.003.015.002.03.005.046.062.295.184.562.335.813.838 1.521 2.872 2.615 4.71 2.224 2.394-.512 4.696-1.083 7.08-1.643l.108-.029c1.634-.382 3.21-.746 4.835-1.165 6.445-1.828 10.05.65 11.339 1.89 4.42 4.26 2.526 12.065-4.984 14.035-4.17 1.264-2.874.612-6.97 1.669-2.32.56-4.636 1.14-6.95 1.719-2.324.58-3.557 2.676-3.087 4.933.407 1.948 2.88 3.56 5.054 3.096 2.394-.51 4.774-1.092 7.158-1.652 0 0-.1-.37 0 0 0 0 1.28-.218 6.109-1.547 9.552-2.115 14.5-8.56 15.227-15.158.606-5.514-.907-11.832-9.18-16.247"/>        </g>    </g></svg>